<svg xmlns="http://www.w3.org/2000/svg" width="408" height="322" viewBox="0 0 408 322">
    <defs>
        <linearGradient id="a" x1="50%" x2="50%" y1="0%" y2="100%">
            <stop offset="0%" stop-color="#BBBFC6" stop-opacity=".2"/>
            <stop offset="100%" stop-color="#EEE" stop-opacity="0"/>
        </linearGradient>
        <linearGradient id="b" x1="0%" y1="50%" y2="50%">
            <stop offset="0%" stop-color="#BAC2CF"/>
            <stop offset="100%" stop-color="#0A1F44"/>
        </linearGradient>
        <linearGradient id="c" x1="0%" y1="0%" y2="0%">
            <stop offset="0%" stop-color="#0A1F44"/>
            <stop offset="100%" stop-color="#BAC2CF"/>
        </linearGradient>
        <linearGradient id="d" x1="0%" y1="0%" y2="0%">
            <stop offset="0%" stop-color="#BAC2CF"/>
            <stop offset="100%" stop-color="#0A1F44"/>
        </linearGradient>
    </defs>
    <g fill="none" fill-rule="evenodd" transform="translate(0 2)">
        <path fill="url(#a)" d="M76.054 196.732a131.295 131.295 0 0 1-1.42-19.3c0-71.862 58.198-130.117 129.988-130.117 71.79 0 129.988 58.255 129.988 130.117 0 6.558-.485 13.002-1.42 19.3H76.054z"/>
        <path fill="url(#b)" fill-rule="nonzero" d="M199.232 318.063c0-27.953-2.981-52.818-9.861-74.134-8.362-25.907-22.158-45.312-42.287-57.067a1.869 1.869 0 0 1-.671-2.555 1.865 1.865 0 0 1 2.552-.672c21 12.264 35.332 32.425 43.957 59.146 4.91 15.214 7.866 32.138 9.198 50.632 6.72-27.75 24.566-48.982 47.141-56.804a1.868 1.868 0 0 1 1.22 3.53c-27.332 9.47-47.518 39.987-47.518 77.924a1.867 1.867 0 1 1-3.731 0z" opacity=".2" transform="matrix(1 0 0 -1 0 503.311)"/>
        <ellipse cx="201.139" cy="176.187" fill="#DFE2E7" rx="1.866" ry="1.868"/>
        <ellipse cx="201.139" cy="167.471" fill="#DFE2E7" rx="1.866" ry="1.868"/>
        <ellipse cx="201.139" cy="158.755" fill="#DFE2E7" rx="1.866" ry="1.868"/>
        <path fill="#FFF" stroke="#051D39" stroke-linecap="round" stroke-width="3" d="M255 49.805l24.878 14.444v85.167H130.61V64.25l24.878-14.444"/>
        <g transform="matrix(-1 0 0 1 266.195 125.759)">
            <path stroke="#051D39" stroke-linecap="round" stroke-width="3" d="M27.366 3.735V4c0 3.955 3.249 7.207 7.2 7.207s7.2-3.252 7.2-7.207v-.264"/>
            <ellipse cx="3.732" cy="3.735" fill="#051D39" fill-rule="nonzero" rx="3.732" ry="3.735"/>
            <ellipse cx="64.683" cy="3.735" fill="#051D39" fill-rule="nonzero" rx="3.732" ry="3.735"/>
        </g>
        <path fill="#FFF" d="M255 0v78.195l-47.766 27.393-51.746-27.892V0z"/>
        <path stroke="#051D39" stroke-linecap="round" stroke-width="3" d="M255 78.195V0h-99.512v77.696M279.878 64.249L130.61 149.416M130.61 64.249l76.624 41.339"/>
        <path fill="#C02428" fill-rule="nonzero" d="M205.314 42.35c-4.123 0-7.602 3.342-7.602 7.584 0 4.241 3.35 7.583 7.602 7.583 4.124 0 7.603-3.342 7.603-7.583 0-4.242-3.48-7.583-7.603-7.583zm-11.855 7.455c0-6.426 5.284-11.696 11.726-11.696 6.443 0 11.726 5.27 11.726 11.696 0 .386 0 .9-.128 1.286-.13 1.157.773 2.056 1.932 2.056 1.933 0 2.191-2.442 2.191-3.342 0-8.611-7.087-15.68-15.72-15.68-8.634 0-15.721 7.069-15.721 15.68 0 8.612 7.087 15.681 15.72 15.681 4.64 0 8.763-1.928 11.598-5.141l3.221 2.7c-3.48 4.112-8.891 6.683-14.69 6.683-11.081 0-19.973-8.869-19.973-19.923 0-10.925 8.892-19.922 19.973-19.922 10.953 0 19.844 8.997 19.844 19.922 0 4.37-2.061 7.97-6.314 7.97-1.804 0-2.963-.9-3.608-1.8-2.061 3.342-5.798 5.527-10.05 5.527-6.443 0-11.727-5.142-11.727-11.697zm11.855-3.47a3.46 3.46 0 0 1 3.48 3.47 3.46 3.46 0 0 1-3.48 3.47 3.46 3.46 0 0 1-3.479-3.47 3.46 3.46 0 0 1 3.48-3.47z"/>
        <g opacity=".2">
            <path fill="#FFF" d="M68.047 103.716l41.202 7.265-5.189 29.429-41.202-7.265z"/>
            <path stroke="#051D39" stroke-linecap="round" stroke-width="3" d="M67.004 108.464l18.65 15.277M67.848 103.68l-5.164 29.284 41.402 7.3 5.163-29.283zM108.406 115.764l-22.751 7.977"/>
        </g>
        <g opacity=".2">
            <path fill="#FFF" d="M291.12 36.187l54.532-9.616 6.92 39.239-54.534 9.615z"/>
            <path stroke="#051D39" stroke-linecap="round" stroke-width="3" d="M291.98 42.61l30.132 10.673M290.856 36.233l6.885 39.044 54.795-9.662-6.884-39.044zM346.776 32.948l-24.664 20.335"/>
        </g>
        <g fill-rule="nonzero" opacity=".2" transform="translate(0 202.957)">
            <rect width="169.171" height="3.735" x="238.829" fill="url(#c)" rx="1.868"/>
            <rect width="169.171" height="3.735" fill="url(#d)" rx="1.868"/>
        </g>
    </g>
</svg>
